<?xml version="1.0" standalone="no"?>
<!DOCTYPE svg PUBLIC "-//W3C//DTD SVG 20010904//EN"
 "http://www.w3.org/TR/2001/REC-SVG-20010904/DTD/svg10.dtd">
<svg version="1.0" xmlns="http://www.w3.org/2000/svg"
 width="500.000000pt" height="500.000000pt" viewBox="0 0 500.000000 500.000000"
 preserveAspectRatio="xMidYMid meet">
<metadata>
Created by potrace 1.14, written by Peter Selinger 2001-2017
</metadata>
<g transform="translate(0.000000,500.000000) scale(0.100000,-0.100000)"
fill="#000000" stroke="none">
<path d="M2457 4744 c-20 -13 -55 -34 -76 -47 -21 -12 -116 -67 -210 -122 -94
-55 -179 -104 -189 -110 -10 -5 -40 -23 -67 -40 -99 -58 -110 -65 -135 -77
-14 -7 -27 -15 -30 -19 -3 -3 -36 -24 -75 -46 -125 -71 -150 -86 -167 -101
-10 -8 -18 -11 -18 -6 0 5 -4 4 -8 -1 -6 -10 -32 -26 -132 -83 -138 -77 -286
-167 -288 -174 -2 -4 -8 -8 -14 -8 -5 0 -23 -9 -39 -21 -16 -11 -29 -17 -29
-13 0 4 -8 0 -17 -8 -10 -8 -47 -32 -82 -53 l-63 -38 28 -17 c16 -9 63 -37
104 -61 41 -24 83 -49 95 -56 11 -7 31 -18 45 -25 14 -6 32 -17 40 -23 8 -7
40 -25 70 -41 30 -16 63 -37 74 -46 10 -10 22 -15 26 -13 4 3 13 -2 20 -10 7
-8 19 -15 26 -15 8 0 14 -4 14 -10 0 -5 6 -10 13 -10 6 0 23 -9 36 -19 24 -18
25 -18 75 12 28 16 69 40 91 52 46 25 67 37 223 129 62 36 117 66 123 66 5 0
9 4 9 9 0 5 12 14 28 20 15 6 45 22 67 36 22 14 51 31 65 38 14 6 27 14 30 17
9 11 151 90 161 90 5 0 9 3 9 8 0 4 23 18 50 31 28 14 50 29 50 33 0 4 5 8 11
8 6 0 38 16 72 36 l61 36 35 -20 c32 -18 125 -71 170 -97 9 -5 75 -45 146 -88
161 -97 143 -87 245 -147 47 -27 90 -54 96 -59 6 -5 31 -20 55 -33 24 -13 63
-36 86 -51 24 -15 47 -27 53 -27 5 0 10 -3 10 -7 0 -5 10 -13 23 -19 12 -6 59
-33 105 -59 77 -44 84 -46 101 -31 9 9 21 16 24 16 4 0 31 16 61 35 30 19 59
35 65 35 5 0 11 4 13 9 2 5 26 20 53 35 28 14 82 46 120 71 39 25 77 48 85 52
24 10 94 57 101 66 3 5 8 7 10 5 2 -1 19 7 38 18 l33 21 -58 35 c-33 19 -79
46 -104 59 -25 13 -47 27 -50 30 -3 3 -12 8 -20 12 -8 4 -33 18 -55 31 -22 14
-68 40 -102 58 -35 18 -63 36 -63 40 0 5 -5 8 -11 8 -10 0 -125 63 -214 117
-11 7 -27 15 -35 19 -8 4 -57 32 -107 61 -51 29 -95 53 -98 53 -3 0 -11 5 -18
10 -7 6 -52 34 -102 61 -49 28 -101 58 -115 67 -14 9 -28 15 -32 14 -5 -1 -8
2 -8 8 0 6 -4 10 -9 10 -5 0 -51 24 -103 54 -51 29 -113 64 -138 78 -44 25
-86 48 -165 95 -22 13 -54 30 -72 38 -17 8 -34 19 -38 25 -10 17 -48 10 -88
-16z"/>
<path d="M559 3598 c0 -16 0 -2249 0 -2264 1 -8 103 -70 266 -160 11 -6 58
-32 105 -59 47 -26 110 -61 140 -77 30 -17 62 -36 71 -44 8 -8 23 -14 31 -14
9 0 18 -4 20 -8 4 -10 164 -102 178 -102 5 0 10 -4 10 -10 0 -5 4 -10 9 -10 4
0 69 -34 142 -76 74 -42 159 -90 189 -107 77 -42 222 -126 240 -138 8 -5 27
-15 43 -22 15 -6 27 -15 27 -19 0 -4 4 -8 9 -8 6 0 36 -15 68 -34 32 -18 83
-47 113 -63 30 -17 93 -52 140 -79 47 -27 102 -58 121 -68 l37 -19 43 25 c24
14 73 41 109 61 153 83 257 141 283 159 15 11 27 16 27 13 0 -3 12 2 28 13 15
11 50 32 77 47 28 16 116 66 197 112 81 45 152 83 157 83 6 0 11 3 11 8 0 4
10 12 23 18 12 6 49 26 82 44 33 18 78 43 100 55 22 12 64 36 93 54 29 17 57
31 62 31 6 0 10 5 10 11 0 5 4 8 9 4 5 -3 12 -1 16 4 3 5 18 16 33 24 39 20
125 68 137 77 10 7 101 58 165 92 19 10 42 23 50 28 41 27 284 160 291 160 5
0 10 6 10 13 1 6 2 517 3 1135 1 751 -2 1122 -9 1122 -5 0 -62 -30 -125 -66
-63 -36 -140 -80 -170 -97 -30 -17 -71 -40 -90 -51 -19 -12 -53 -30 -75 -41
-22 -11 -42 -23 -45 -26 -3 -3 -34 -22 -70 -41 -117 -64 -285 -158 -300 -168
-8 -6 -26 -15 -40 -21 -14 -6 -32 -16 -40 -24 -8 -7 -22 -15 -30 -17 -8 -2
-17 -5 -20 -8 -5 -6 -63 -40 -145 -85 -27 -16 -53 -33 -57 -39 -4 -6 -8 -7 -8
-3 0 4 -20 -6 -45 -23 -25 -17 -45 -28 -45 -25 0 4 -13 -3 -29 -14 -16 -12
-34 -21 -40 -21 -5 0 -15 -8 -20 -17 -6 -10 -11 -15 -11 -11 0 6 -104 -48
-160 -82 -28 -17 -205 -115 -215 -119 -5 -2 -17 -9 -25 -16 -8 -7 -42 -27 -75
-45 -33 -17 -65 -36 -72 -42 -7 -5 -17 -7 -23 -3 -5 3 -10 0 -10 -7 0 -9 -3
-9 -8 -2 -4 6 -14 13 -22 17 -8 4 -33 18 -55 32 -22 13 -62 37 -90 52 -27 15
-59 33 -70 40 -11 7 -32 17 -47 24 -16 6 -28 15 -28 21 0 5 -4 7 -9 3 -5 -3
-13 0 -16 5 -4 6 -17 16 -28 21 -12 5 -49 25 -82 45 -33 19 -71 40 -85 47 -14
6 -27 14 -30 17 -3 3 -23 15 -45 27 -102 54 -230 127 -235 132 -5 6 -81 48
-117 65 -13 6 -23 14 -23 19 0 4 -4 7 -9 7 -9 0 -101 50 -216 116 -33 20 -72
40 -87 47 -16 6 -28 15 -28 19 0 4 -6 8 -14 8 -8 0 -21 6 -28 13 -14 12 -31
22 -148 85 -36 19 -77 43 -92 53 -14 11 -33 19 -41 19 -9 0 -17 4 -19 8 -4 9
-95 63 -104 61 -4 0 -10 3 -13 8 -8 13 -144 88 -153 85 -5 -1 -8 3 -8 8 0 15
-30 12 -31 -2z m695 -1105 c28 -16 53 -31 54 -35 2 -5 7 -8 12 -8 8 0 80 -41
128 -72 15 -10 37 -22 49 -27 12 -6 51 -28 85 -49 35 -22 73 -43 86 -47 12 -3
22 -10 22 -13 0 -4 17 -16 38 -27 20 -11 40 -24 44 -30 4 -5 8 -6 8 -2 0 4 20
-6 44 -23 25 -16 47 -30 50 -30 5 0 165 -92 296 -170 52 -31 115 -68 140 -82
25 -14 85 -49 135 -78 l90 -52 72 38 c40 21 73 43 73 48 0 5 3 7 6 3 3 -3 30
10 59 29 30 19 57 34 60 34 4 0 26 14 51 30 24 17 44 28 44 25 0 -3 19 7 43
23 23 16 49 32 57 35 8 4 38 21 65 37 28 17 61 36 75 43 14 6 27 14 30 17 3 3
19 12 35 20 17 8 32 18 35 21 6 8 68 40 75 39 3 0 13 6 21 15 9 8 22 15 30 15
8 0 14 4 14 10 0 5 11 12 25 16 14 3 25 10 25 15 0 5 5 9 10 9 6 0 56 27 111
60 55 33 101 60 103 60 1 0 52 29 112 65 60 36 114 65 119 65 12 0 13 -782 1
-817 -4 -13 -11 -23 -16 -23 -5 0 -72 -36 -149 -80 -78 -44 -146 -80 -151 -80
-6 0 -10 -4 -10 -10 0 -5 -4 -10 -10 -10 -5 0 -31 -13 -57 -28 -62 -37 -182
-103 -210 -116 -13 -6 -23 -15 -23 -19 0 -5 -4 -5 -10 -2 -5 3 -10 1 -10 -4 0
-6 -9 -11 -19 -11 -11 0 -21 -4 -23 -8 -1 -4 -34 -25 -73 -47 -38 -21 -83 -46
-100 -56 -208 -118 -255 -145 -287 -163 -148 -83 -191 -106 -201 -106 -7 0
-43 18 -81 40 -37 22 -72 40 -76 40 -5 0 -10 3 -12 8 -1 4 -19 15 -38 25 -75
39 -95 50 -101 59 -3 6 -10 10 -15 10 -5 1 -26 12 -46 24 -21 13 -40 24 -43
24 -2 0 -33 17 -67 38 -35 20 -76 44 -93 52 -16 8 -32 17 -35 20 -6 6 -36 23
-110 63 -30 16 -66 37 -80 45 -14 9 -38 24 -55 32 -75 41 -100 55 -105 60 -3
3 -16 11 -30 18 -14 6 -32 16 -40 21 -54 34 -210 121 -214 119 -2 -2 -12 4
-22 13 -11 9 -33 24 -51 33 l-31 16 0 410 c0 225 2 410 5 410 3 0 28 -12 57
-27z"/>
</g>
</svg>
